<svg xmlns="http://www.w3.org/2000/svg" viewBox="0 0 256 256" fill="none" shape-rendering="auto"><metadata xmlns:rdf="http://www.w3.org/1999/02/22-rdf-syntax-ns#" xmlns:xsi="http://www.w3.org/2001/XMLSchema-instance" xmlns:dc="http://purl.org/dc/elements/1.1/" xmlns:dcterms="http://purl.org/dc/terms/"><rdf:RDF><rdf:Description><dc:title>Croodles - Doodle your face</dc:title><dc:creator>vijay verma</dc:creator><dc:source xsi:type="dcterms:URI">https://www.figma.com/community/file/966199982810283152</dc:source><dcterms:license xsi:type="dcterms:URI">https://creativecommons.org/licenses/by/4.0/</dcterms:license><dc:rights>Remix of „Croodles - Doodle your face” (https://www.figma.com/community/file/966199982810283152) by „vijay verma”, licensed under „CC BY 4.0” (https://creativecommons.org/licenses/by/4.0/)</dc:rights></rdf:Description></rdf:RDF></metadata><mask id="viewboxMask"><rect width="256" height="256" rx="0" ry="0" x="0" y="0" fill="#fff"/></mask><g mask="url(#viewboxMask)"><path d="M73.7 93.5a45.6 45.6 0 0 1 7.2-17c3-5 9-9.5 16.4-13a90.1 90.1 0 0 1 26.4-7.7c19-2.5 40.2.5 53.5 14l.6.4c7.8 7.5 9.5 18.5 9.2 30.3v1.3c1.5.3 3.3 1.3 4.8 3.2 1.8 2.4 2.8 6.3 1.8 12a21.4 21.4 0 0 1-2.9 8.1l-.8 1.5c-.8 1.4-1.6 2.9-2.7 3.8a4 4 0 0 1-3 .9l-.5 6.4c-2.2 37-4.7 59.8-22.1 79.2-16.9 18.7-43.6 13.3-57 0-10.7-10.7-28.5-33-32-83.4-1.9.3-3.7-1-5-3-1.6-2.4-3-6.1-4.1-11.8-1-5.5-.3-9.4 1.5-12a8.2 8.2 0 0 1 6.8-3.4h.5c.3-3.7.8-7 1.4-9.8Z" fill="#ffffff"/><g stroke="#000" stroke-width="3" stroke-linecap="round" stroke-linejoin="round"><path d="M186.4 102.2c2.3 0 8.3 2.7 6.4 13.8-.9 4.9-2 6-3.7 9.2-1.5 2.8-2.7 4.9-5.5 3.6M70.4 103.8c-3.8 0-9 3.2-7 13.8 2.2 11.4 5.6 14.4 7.9 13.7"/><path d="M82.2 74.4C75 84.8 70.4 94 72.7 131c3.2 51.9 21.4 74.5 32.2 85.2 13.1 13 39.3 18 55.7 0 17.3-19.2 19.8-41.8 22-79.2 1.5-24.9 9.4-52.8-5.4-67"/></g><g transform="translate(117 131)"><path d="M24.3 5c-.8 5.3-1.2 16.3.3 22.3 3.6 14.1-1.5 17.5-3.2 17.5-5.3 0-6.5-4.7-7.7-18-1.5-16.5-1.6-16.3-3.7-21" stroke="#000" stroke-width="3" stroke-linecap="round" stroke-linejoin="round"/></g><g transform="translate(63 147)"/><g transform="translate(100 194)"><g stroke="#000" stroke-width="3" stroke-linecap="round" stroke-linejoin="round"><path d="M16 6.6c5.3 2.5 13.5 8 22.7 7.7 11-.3 14.6-6.1 16-9.3"/><path d="M34.3 6.3c-3-1.9-8.6 1.8-10 4.2 1.6 5.5 7.4 9.2 14 9.2 7.3 0 11.3-6.3 12-8.5h0c-.7-1.2-1.8-3.3-4.8-4.9-3.7-2-6.1 6-6.8 6-.7 0-.6-3.6-4.4-6Z"/></g></g><g transform="translate(0 -34)"><g stroke="#000000" stroke-linecap="round" stroke-linejoin="round"><path d="m82 98 7.5 9.3L82 91l12.5 17.8L83.3 84l19.4 26.2L95.9 91c5.7 8.3 17 24.1 16 21.3-.9-2.8-5.6-12.8-8-17.5l17.5 19L115 96l13.8 16.3-2.5-13 10 11-2.3-15.5 10 15.5-5-18.2 13.2 16.7-4.5-19.2 12 17.7-5.4-19.6 10.9 18.3-5.5-19.7 11 18-5.5-20.2 11 18-5.5-20" stroke-width="6"/><path d="M54 65.6C77 54.4 125 32 134.3 32c9.4 0 51.6 15.6 71.6 23.4L124 99.2 57.8 63.7" stroke-width="3"/><path d="m195.8 57.1-4.2-5.2-3.2 11-3.1-13.8-5.8 18.5-2-21.7-6.6 27.5a110 110 0 0 0 0-29.6c-2.4-8.2-3.5 30.8-5.9 23.8-1.8-5.6-3-22-3.8-27.3v36L154 39v41.2l-5.5-43-3.2 46-5.5-47.8-3.9 56.1-4-56.1-2.3 59.5-6.3-57.7-2.4 57.7-4.6-55.9-5.3 52.5-2.6-49.7-4.9 45-3.4-40.9-3.6 37.3-2-34-5.4 31L87.5 52c-1 7.8-3.6 23.7-5.2 24.4-2 1-1.7-11.8-1.3-20 .3-6.7-3 5.7-5.4 13.6l-3-11-2.4 8.7L66 63" stroke-width="6"/><path d="M79.1 76.5V104c0 3.2 34.6 12.1 42.4 12.1 6.3 0 40.3-8 56.6-12.1V71.7M55.8 67 50 108.5M56.3 66.4v40M57 66.4l3.5 38" stroke-width="3"/></g></g><g transform="translate(72 160)"/><g transform="translate(72 89)"><g stroke="#000" stroke-width="3" stroke-linecap="round" stroke-linejoin="round"><path d="M26.8 19.1c1.3 1.2 4.7 2.4 8.6 1.7 3.5-.5 5-2 6-3.9M70 16.1c2 2.6 5.4 3.4 7.6 3.6 2.2 0 5-.8 7.2-2M4 20.5 17.7 29M48.2 32.8A31.5 31.5 0 0 1 68.7 31M96.9 28.7c2.5-1.4 10.6-7.8 13.1-9.7"/><path d="M22.6 46c-8.3-3.1-7.6-11.4-3.7-17.2 3-3.8 22.8-2.2 27.2 1.8 4.2 3.8 2.3 11.8-1.8 14.3-3.4 2-16.2 3.1-21.7 1ZM94.4 26.7c-3.6-1.2-18.2-1-24 2.6-3.8 2.5-6.5 14.7 3.6 16 4.6.7 14.9 0 18.7-1.8 8.2-3.9 6.8-15.2 1.7-16.8Z"/><path d="M29.7 35.3c1-2 3.2-2.6 4.1-2.6 3.1 0 4 1.3 4.7 2.1M78 35.3c1-2 3.1-2.6 4-2.6 3.2 0 4 1.3 4.7 2.1"/></g></g></g></svg>