<?xml version="1.0" standalone="no"?>
<!DOCTYPE svg PUBLIC "-//W3C//DTD SVG 20010904//EN"
 "http://www.w3.org/TR/2001/REC-SVG-20010904/DTD/svg10.dtd">
<svg version="1.0" xmlns="http://www.w3.org/2000/svg"
 width="284.000000pt" height="232.000000pt" viewBox="0 0 284.000000 232.000000"
 preserveAspectRatio="xMidYMid meet">

<g transform="translate(0.000000,232.000000) scale(0.100000,-0.100000)"
fill="#000000" stroke="none">
<path d="M1250 2143 c-373 -40 -654 -194 -764 -418 -45 -93 -58 -159 -57 -299
1 -180 27 -263 124 -391 l45 -59 -29 -36 c-79 -99 -88 -254 -22 -389 98 -202
407 -324 812 -320 103 1 221 14 166 19 -18 1 -23 4 -12 7 14 4 17 16 17 73 0
46 -4 70 -12 73 -7 2 11 7 41 11 91 12 50 16 -50 5 -190 -22 -466 7 -606 64
-168 68 -254 193 -208 303 30 73 35 75 118 34 147 -71 362 -97 457 -53 145 66
184 234 82 353 -54 64 -101 83 -214 88 -83 4 -110 0 -189 -22 -51 -15 -119
-41 -152 -58 l-58 -32 -25 30 c-13 16 -41 62 -61 103 -34 67 -38 85 -42 164
-6 170 31 271 137 369 145 134 384 206 692 209 97 1 130 4 100 9 -25 4 -37 8
-27 8 14 2 17 13 17 72 0 60 -3 70 -17 71 -10 1 -4 5 12 9 30 8 -207 10 -275
3z m-42 -1129 c16 -11 22 -24 20 -42 -5 -41 -62 -57 -155 -43 -75 11 -153 37
-153 51 0 5 26 16 58 25 31 9 62 18 67 20 30 11 142 4 163 -11z"/>
<path d="M1578 2133 c12 -2 30 -2 40 0 9 3 -1 5 -23 4 -22 0 -30 -2 -17 -4z"/>
<path d="M1668 2123 c6 -2 18 -2 25 0 6 3 1 5 -13 5 -14 0 -19 -2 -12 -5z"/>
<path d="M1603 1963 c9 -2 23 -2 30 0 6 3 -1 5 -18 5 -16 0 -22 -2 -12 -5z"/>
<path d="M1658 1953 c6 -2 18 -2 25 0 6 3 1 5 -13 5 -14 0 -19 -2 -12 -5z"/>
<path d="M1528 1626 c-61 -16 -112 -51 -145 -100 -22 -30 -28 -53 -31 -106 -4
-60 -1 -75 23 -117 51 -91 136 -133 265 -131 61 1 65 2 20 5 -30 1 -73 5 -95
8 l-40 5 5 83 c4 67 8 81 20 78 8 -2 31 -6 50 -7 34 -3 33 -3 -4 5 -22 5 -48
19 -58 31 -10 12 -18 18 -18 13 0 -5 6 -15 13 -23 10 -12 9 -12 -4 -2 -9 7
-16 23 -16 37 0 14 7 30 16 37 13 10 14 10 4 -2 -7 -8 -13 -18 -13 -23 0 -5 8
1 18 13 9 12 33 26 52 31 31 7 32 8 5 5 -16 -2 -37 -5 -45 -7 -12 -3 -15 9
-15 73 0 73 -1 77 -20 72 -19 -5 -19 -4 -1 7 10 6 59 14 110 19 91 7 91 7 21
8 -38 0 -91 -5 -117 -12z"/>
<path d="M1673 1463 c9 -2 23 -2 30 0 6 3 -1 5 -18 5 -16 0 -22 -2 -12 -5z"/>
<path d="M1663 1343 c9 -2 23 -2 30 0 6 3 -1 5 -18 5 -16 0 -22 -2 -12 -5z"/>
<path d="M1638 433 c7 -3 16 -2 19 1 4 3 -2 6 -13 5 -11 0 -14 -3 -6 -6z"/>
<path d="M1648 263 c7 -3 16 -2 19 1 4 3 -2 6 -13 5 -11 0 -14 -3 -6 -6z"/>
<path d="M1578 253 c12 -2 30 -2 40 0 9 3 -1 5 -23 4 -22 0 -30 -2 -17 -4z"/>
</g>
</svg>
