<svg width="120" height="26" viewBox="0 0 120 26" fill="none" xmlns="http://www.w3.org/2000/svg">
<path d="M12.771 5.3265C12.636 5.5425 12.492 5.7045 12.339 5.8125C12.195 5.9205 12.006 5.9745 11.772 5.9745C11.565 5.9745 11.34 5.9115 11.097 5.7855C10.863 5.6505 10.593 5.502 10.287 5.34C9.99 5.178 9.648 5.034 9.261 4.908C8.874 4.773 8.433 4.7055 7.938 4.7055C7.083 4.7055 6.444 4.89 6.021 5.259C5.607 5.619 5.4 6.1095 5.4 6.7305C5.4 7.1265 5.526 7.455 5.778 7.716C6.03 7.977 6.3585 8.202 6.7635 8.391C7.1775 8.58 7.6455 8.7555 8.1675 8.9175C8.6985 9.0705 9.2385 9.246 9.7875 9.444C10.3365 9.633 10.872 9.858 11.394 10.119C11.925 10.38 12.393 10.713 12.798 11.118C13.212 11.523 13.545 12.018 13.797 12.603C14.049 13.179 14.175 13.8765 14.175 14.6955C14.175 15.6045 14.0175 16.455 13.7025 17.247C13.3875 18.039 12.9285 18.732 12.3255 19.326C11.7315 19.911 10.9935 20.3745 10.1115 20.7165C9.2385 21.0495 8.244 21.216 7.128 21.216C6.516 21.216 5.8905 21.153 5.2515 21.027C4.6215 20.901 4.0095 20.7255 3.4155 20.5005C2.8215 20.2665 2.2635 19.992 1.7415 19.677C1.2195 19.362 0.765 19.011 0.378 18.624L1.728 16.491C1.836 16.338 1.9755 16.212 2.1465 16.113C2.3265 16.005 2.52 15.951 2.727 15.951C2.997 15.951 3.267 16.0365 3.537 16.2075C3.816 16.3785 4.1265 16.5675 4.4685 16.7745C4.8195 16.9815 5.22 17.1705 5.67 17.3415C6.12 17.5125 6.651 17.598 7.263 17.598C8.091 17.598 8.7345 17.418 9.1935 17.058C9.6525 16.689 9.882 16.1085 9.882 15.3165C9.882 14.8575 9.756 14.484 9.504 14.196C9.252 13.908 8.919 13.6695 8.505 13.4805C8.1 13.2915 7.6365 13.125 7.1145 12.981C6.5925 12.837 6.057 12.6795 5.508 12.5085C4.959 12.3285 4.4235 12.1125 3.9015 11.8605C3.3795 11.5995 2.9115 11.262 2.4975 10.848C2.0925 10.425 1.764 9.903 1.512 9.282C1.26 8.652 1.134 7.878 1.134 6.96C1.134 6.222 1.2825 5.502 1.5795 4.8C1.8765 4.098 2.313 3.4725 2.889 2.9235C3.465 2.3745 4.1715 1.938 5.0085 1.614C5.8455 1.281 6.804 1.1145 7.884 1.1145C8.487 1.1145 9.072 1.164 9.639 1.263C10.215 1.353 10.7595 1.4925 11.2725 1.6815C11.7855 1.8615 12.2625 2.082 12.7035 2.343C13.1535 2.595 13.554 2.883 13.905 3.207L12.771 5.3265ZM20.7698 21.216C20.1038 21.216 19.5143 21.1215 19.0013 20.9325C18.4973 20.7345 18.0698 20.46 17.7188 20.109C17.3768 19.749 17.1158 19.317 16.9358 18.813C16.7558 18.309 16.6658 17.7465 16.6658 17.1255V9.8895H15.4778C15.2618 9.8895 15.0773 9.822 14.9243 9.687C14.7713 9.543 14.6948 9.336 14.6948 9.066V7.4325L16.9223 7.0005L17.7458 3.585C17.8538 3.153 18.1598 2.937 18.6638 2.937H20.8508V7.0275H24.3203V9.8895H20.8508V16.842C20.8508 17.166 20.9273 17.436 21.0803 17.652C21.2423 17.859 21.4718 17.9625 21.7688 17.9625C21.9218 17.9625 22.0478 17.949 22.1468 17.922C22.2548 17.886 22.3448 17.85 22.4168 17.814C22.4978 17.769 22.5698 17.733 22.6328 17.706C22.7048 17.67 22.7858 17.652 22.8758 17.652C23.0018 17.652 23.1008 17.6835 23.1728 17.7465C23.2538 17.8005 23.3348 17.8905 23.4158 18.0165L24.6848 20.001C24.1448 20.406 23.5373 20.712 22.8623 20.919C22.1873 21.117 21.4898 21.216 20.7698 21.216ZM38.6786 7.0005V21H36.0866C35.5646 21 35.2226 20.766 35.0606 20.298L34.8176 19.488C34.5476 19.749 34.2686 19.9875 33.9806 20.2035C33.6926 20.4105 33.3821 20.5905 33.0491 20.7435C32.7251 20.8875 32.3696 21 31.9826 21.081C31.6046 21.171 31.1906 21.216 30.7406 21.216C29.9756 21.216 29.2961 21.0855 28.7021 20.8245C28.1171 20.5545 27.6221 20.181 27.2171 19.704C26.8121 19.227 26.5061 18.6645 26.2991 18.0165C26.0921 17.3685 25.9886 16.6575 25.9886 15.8835V7.0005H30.1736V15.8835C30.1736 16.5765 30.3311 17.112 30.6461 17.49C30.9611 17.868 31.4246 18.057 32.0366 18.057C32.4956 18.057 32.9231 17.9625 33.3191 17.7735C33.7241 17.5755 34.1156 17.31 34.4936 16.977V7.0005H38.6786ZM50.0135 10.7535C49.6985 10.4025 49.3565 10.1595 48.9875 10.0245C48.6185 9.8805 48.2315 9.8085 47.8265 9.8085C47.4395 9.8085 47.084 9.885 46.76 10.038C46.436 10.191 46.1525 10.4385 45.9095 10.7805C45.6755 11.1135 45.491 11.55 45.356 12.09C45.221 12.63 45.1535 13.2825 45.1535 14.0475C45.1535 14.7855 45.2075 15.4065 45.3155 15.9105C45.4235 16.4145 45.572 16.824 45.761 17.139C45.959 17.445 46.193 17.6655 46.463 17.8005C46.733 17.9355 47.0345 18.003 47.3675 18.003C47.6735 18.003 47.948 17.976 48.191 17.922C48.443 17.859 48.6725 17.7735 48.8795 17.6655C49.0865 17.5575 49.28 17.4225 49.46 17.2605C49.649 17.0895 49.8335 16.896 50.0135 16.68V10.7535ZM54.1985 0.790499V21H51.6065C51.0845 21 50.7425 20.766 50.5805 20.298L50.2565 19.2315C49.9775 19.5285 49.685 19.7985 49.379 20.0415C49.073 20.2845 48.74 20.496 48.38 20.676C48.029 20.847 47.6465 20.9775 47.2325 21.0675C46.8275 21.1665 46.3865 21.216 45.9095 21.216C45.1805 21.216 44.5055 21.054 43.8845 20.73C43.2635 20.406 42.728 19.938 42.278 19.326C41.828 18.714 41.4725 17.967 41.2115 17.085C40.9595 16.194 40.8335 15.1815 40.8335 14.0475C40.8335 13.0035 40.9775 12.036 41.2655 11.145C41.5535 10.245 41.9585 9.471 42.4805 8.823C43.0115 8.166 43.646 7.653 44.384 7.284C45.122 6.915 45.9365 6.7305 46.8275 6.7305C47.5565 6.7305 48.1685 6.834 48.6635 7.041C49.1585 7.248 49.6085 7.527 50.0135 7.878V0.790499H54.1985ZM70.3234 7.0005L62.8444 24.6315C62.7184 24.9105 62.5654 25.113 62.3854 25.239C62.2054 25.374 61.9174 25.4415 61.5214 25.4415H58.3894L61.0894 19.7715L55.5004 7.0005H59.1994C59.5234 7.0005 59.7709 7.0725 59.9419 7.2165C60.1219 7.3605 60.2524 7.5315 60.3334 7.7295L62.6284 13.764C62.8444 14.313 63.0199 14.8755 63.1549 15.4515C63.2539 15.1635 63.3529 14.8755 63.4519 14.5875C63.5509 14.2995 63.6544 14.016 63.7624 13.737L65.8414 7.7295C65.9224 7.5225 66.0664 7.3515 66.2734 7.2165C66.4804 7.0725 66.7054 7.0005 66.9484 7.0005H70.3234Z" fill="#263238"/>
<path d="M81.3666 10.3215C81.2406 10.4745 81.1191 10.596 81.0021 10.686C80.8851 10.776 80.7186 10.821 80.5026 10.821C80.2956 10.821 80.1066 10.7715 79.9356 10.6725C79.7736 10.5735 79.5891 10.4655 79.3821 10.3485C79.1751 10.2225 78.9321 10.11 78.6531 10.011C78.3741 9.912 78.0276 9.8625 77.6136 9.8625C77.1006 9.8625 76.6551 9.957 76.2771 10.146C75.9081 10.335 75.6021 10.605 75.3591 10.956C75.1161 11.307 74.9361 11.739 74.8191 12.252C74.7021 12.756 74.6436 13.3275 74.6436 13.9665C74.6436 15.3075 74.9001 16.338 75.4131 17.058C75.9351 17.778 76.6506 18.138 77.5596 18.138C78.0456 18.138 78.4281 18.0795 78.7071 17.9625C78.9951 17.8365 79.2381 17.7015 79.4361 17.5575C79.6341 17.4045 79.8141 17.265 79.9761 17.139C80.1471 17.013 80.3586 16.95 80.6106 16.95C80.9436 16.95 81.1956 17.0715 81.3666 17.3145L82.5816 18.813C82.1496 19.308 81.6951 19.713 81.2181 20.028C80.7411 20.334 80.2506 20.577 79.7466 20.757C79.2516 20.928 78.7521 21.045 78.2481 21.108C77.7441 21.18 77.2536 21.216 76.7766 21.216C75.9216 21.216 75.1026 21.054 74.3196 20.73C73.5456 20.406 72.8616 19.938 72.2676 19.326C71.6826 18.705 71.2146 17.9445 70.8636 17.0445C70.5216 16.1445 70.3506 15.1185 70.3506 13.9665C70.3506 12.9585 70.4991 12.018 70.7961 11.145C71.1021 10.263 71.5476 9.5025 72.1326 8.8635C72.7266 8.2155 73.4556 7.707 74.3196 7.338C75.1926 6.969 76.2006 6.7845 77.3436 6.7845C78.4416 6.7845 79.4046 6.96 80.2326 7.311C81.0606 7.662 81.8076 8.175 82.4736 8.85L81.3666 10.3215ZM90.4262 6.7845C91.4882 6.7845 92.4557 6.951 93.3287 7.284C94.2017 7.617 94.9487 8.094 95.5697 8.715C96.1997 9.336 96.6857 10.092 97.0277 10.983C97.3787 11.865 97.5542 12.8595 97.5542 13.9665C97.5542 15.0825 97.3787 16.0905 97.0277 16.9905C96.6857 17.8815 96.1997 18.642 95.5697 19.272C94.9487 19.893 94.2017 20.3745 93.3287 20.7165C92.4557 21.0495 91.4882 21.216 90.4262 21.216C89.3552 21.216 88.3787 21.0495 87.4967 20.7165C86.6237 20.3745 85.8677 19.893 85.2287 19.272C84.5987 18.642 84.1082 17.8815 83.7572 16.9905C83.4152 16.0905 83.2442 15.0825 83.2442 13.9665C83.2442 12.8595 83.4152 11.865 83.7572 10.983C84.1082 10.092 84.5987 9.336 85.2287 8.715C85.8677 8.094 86.6237 7.617 87.4967 7.284C88.3787 6.951 89.3552 6.7845 90.4262 6.7845ZM90.4262 18.111C91.3892 18.111 92.0957 17.7735 92.5457 17.0985C93.0047 16.4145 93.2342 15.3795 93.2342 13.9935C93.2342 12.6075 93.0047 11.577 92.5457 10.902C92.0957 10.227 91.3892 9.8895 90.4262 9.8895C89.4362 9.8895 88.7117 10.227 88.2527 10.902C87.7937 11.577 87.5642 12.6075 87.5642 13.9935C87.5642 15.3795 87.7937 16.4145 88.2527 17.0985C88.7117 17.7735 89.4362 18.111 90.4262 18.111ZM106.115 6.7845C107.177 6.7845 108.144 6.951 109.017 7.284C109.89 7.617 110.637 8.094 111.258 8.715C111.888 9.336 112.374 10.092 112.716 10.983C113.067 11.865 113.243 12.8595 113.243 13.9665C113.243 15.0825 113.067 16.0905 112.716 16.9905C112.374 17.8815 111.888 18.642 111.258 19.272C110.637 19.893 109.89 20.3745 109.017 20.7165C108.144 21.0495 107.177 21.216 106.115 21.216C105.044 21.216 104.067 21.0495 103.185 20.7165C102.312 20.3745 101.556 19.893 100.917 19.272C100.287 18.642 99.7966 17.8815 99.4456 16.9905C99.1036 16.0905 98.9326 15.0825 98.9326 13.9665C98.9326 12.8595 99.1036 11.865 99.4456 10.983C99.7966 10.092 100.287 9.336 100.917 8.715C101.556 8.094 102.312 7.617 103.185 7.284C104.067 6.951 105.044 6.7845 106.115 6.7845ZM106.115 18.111C107.078 18.111 107.784 17.7735 108.234 17.0985C108.693 16.4145 108.923 15.3795 108.923 13.9935C108.923 12.6075 108.693 11.577 108.234 10.902C107.784 10.227 107.078 9.8895 106.115 9.8895C105.125 9.8895 104.4 10.227 103.941 10.902C103.482 11.577 103.253 12.6075 103.253 13.9935C103.253 15.3795 103.482 16.4145 103.941 17.0985C104.4 17.7735 105.125 18.111 106.115 18.111ZM119.535 0.790499V21H115.35V0.790499H119.535Z" fill="#5050DD"/>
</svg>
